<?xml version="1.0" standalone="no"?>
<!DOCTYPE svg PUBLIC "-//W3C//DTD SVG 1.1//EN" "http://www.w3.org/Graphics/SVG/1.1/DTD/svg11.dtd">
<svg version="1.1" width="1200" height="342" onload="init(evt)" viewBox="0 0 1200 342" xmlns="http://www.w3.org/2000/svg" xmlns:xlink="http://www.w3.org/1999/xlink">
<!-- Flame graph stack visualization. See https://github.com/brendangregg/FlameGraph for latest version, and http://www.brendangregg.com/flamegraphs.html for examples. -->
<!-- NOTES:  -->
<defs>
	<linearGradient id="background" y1="0" y2="1" x1="0" x2="0" >
		<stop stop-color="#eeeeee" offset="5%" />
		<stop stop-color="#eeeeb0" offset="95%" />
	</linearGradient>
</defs>
<style type="text/css">
	text { font-family:Verdana; font-size:12px; fill:rgb(0,0,0); }
	#search, #ignorecase { opacity:0.1; cursor:pointer; }
	#search:hover, #search.show, #ignorecase:hover, #ignorecase.show { opacity:1; }
	#subtitle { text-anchor:middle; font-color:rgb(160,160,160); }
	#title { text-anchor:middle; font-size:17px}
	#unzoom { cursor:pointer; }
	#frames > *:hover { stroke:black; stroke-width:0.5; cursor:pointer; }
	.hide { display:none; }
	.parent { opacity:0.5; }
</style>
<script type="text/ecmascript">
<![CDATA[
	"use strict";
	var details, searchbtn, unzoombtn, matchedtxt, svg, searching, currentSearchTerm, ignorecase, ignorecaseBtn;
	function init(evt) {
		details = document.getElementById("details").firstChild;
		searchbtn = document.getElementById("search");
		ignorecaseBtn = document.getElementById("ignorecase");
		unzoombtn = document.getElementById("unzoom");
		matchedtxt = document.getElementById("matched");
		svg = document.getElementsByTagName("svg")[0];
		searching = 0;
		currentSearchTerm = null;
	}

	window.addEventListener("click", function(e) {
		var target = find_group(e.target);
		if (target) {
			if (target.nodeName == "a") {
				if (e.ctrlKey === false) return;
				e.preventDefault();
			}
			if (target.classList.contains("parent")) unzoom();
			zoom(target);
		}
		else if (e.target.id == "unzoom") unzoom();
		else if (e.target.id == "search") search_prompt();
		else if (e.target.id == "ignorecase") toggle_ignorecase();
	}, false)

	// mouse-over for info
	// show
	window.addEventListener("mouseover", function(e) {
		var target = find_group(e.target);
		if (target) details.nodeValue = "Function: " + g_to_text(target);
	}, false)

	// clear
	window.addEventListener("mouseout", function(e) {
		var target = find_group(e.target);
		if (target) details.nodeValue = ' ';
	}, false)

	// ctrl-F for search
	window.addEventListener("keydown",function (e) {
		if (e.keyCode === 114 || (e.ctrlKey && e.keyCode === 70)) {
			e.preventDefault();
			search_prompt();
		}
	}, false)

	// ctrl-I to toggle case-sensitive search
	window.addEventListener("keydown",function (e) {
		if (e.ctrlKey && e.keyCode === 73) {
			e.preventDefault();
			toggle_ignorecase();
		}
	}, false)

	// functions
	function find_child(node, selector) {
		var children = node.querySelectorAll(selector);
		if (children.length) return children[0];
		return;
	}
	function find_group(node) {
		var parent = node.parentElement;
		if (!parent) return;
		if (parent.id == "frames") return node;
		return find_group(parent);
	}
	function orig_save(e, attr, val) {
		if (e.attributes["_orig_" + attr] != undefined) return;
		if (e.attributes[attr] == undefined) return;
		if (val == undefined) val = e.attributes[attr].value;
		e.setAttribute("_orig_" + attr, val);
	}
	function orig_load(e, attr) {
		if (e.attributes["_orig_"+attr] == undefined) return;
		e.attributes[attr].value = e.attributes["_orig_" + attr].value;
		e.removeAttribute("_orig_"+attr);
	}
	function g_to_text(e) {
		var text = find_child(e, "title").firstChild.nodeValue;
		return (text)
	}
	function g_to_func(e) {
		var func = g_to_text(e);
		// if there's any manipulation we want to do to the function
		// name before it's searched, do it here before returning.
		return (func);
	}
	function update_text(e) {
		var r = find_child(e, "rect");
		var t = find_child(e, "text");
		var w = parseFloat(r.attributes.width.value) -3;
		var txt = find_child(e, "title").textContent.replace(/\([^(]*\)$/,"");
		t.attributes.x.value = parseFloat(r.attributes.x.value) + 3;

		// Smaller than this size won't fit anything
		if (w < 2 * 12 * 0.59) {
			t.textContent = "";
			return;
		}

		t.textContent = txt;
		// Fit in full text width
		if (/^ *$/.test(txt) || t.getSubStringLength(0, txt.length) < w)
			return;

		for (var x = txt.length - 2; x > 0; x--) {
			if (t.getSubStringLength(0, x + 2) <= w) {
				t.textContent = txt.substring(0, x) + "..";
				return;
			}
		}
		t.textContent = "";
	}

	// zoom
	function zoom_reset(e) {
		if (e.attributes != undefined) {
			orig_load(e, "x");
			orig_load(e, "width");
		}
		if (e.childNodes == undefined) return;
		for (var i = 0, c = e.childNodes; i < c.length; i++) {
			zoom_reset(c[i]);
		}
	}
	function zoom_child(e, x, ratio) {
		if (e.attributes != undefined) {
			if (e.attributes.x != undefined) {
				orig_save(e, "x");
				e.attributes.x.value = (parseFloat(e.attributes.x.value) - x - 10) * ratio + 10;
				if (e.tagName == "text")
					e.attributes.x.value = find_child(e.parentNode, "rect[x]").attributes.x.value + 3;
			}
			if (e.attributes.width != undefined) {
				orig_save(e, "width");
				e.attributes.width.value = parseFloat(e.attributes.width.value) * ratio;
			}
		}

		if (e.childNodes == undefined) return;
		for (var i = 0, c = e.childNodes; i < c.length; i++) {
			zoom_child(c[i], x - 10, ratio);
		}
	}
	function zoom_parent(e) {
		if (e.attributes) {
			if (e.attributes.x != undefined) {
				orig_save(e, "x");
				e.attributes.x.value = 10;
			}
			if (e.attributes.width != undefined) {
				orig_save(e, "width");
				e.attributes.width.value = parseInt(svg.width.baseVal.value) - (10 * 2);
			}
		}
		if (e.childNodes == undefined) return;
		for (var i = 0, c = e.childNodes; i < c.length; i++) {
			zoom_parent(c[i]);
		}
	}
	function zoom(node) {
		var attr = find_child(node, "rect").attributes;
		var width = parseFloat(attr.width.value);
		var xmin = parseFloat(attr.x.value);
		var xmax = parseFloat(xmin + width);
		var ymin = parseFloat(attr.y.value);
		var ratio = (svg.width.baseVal.value - 2 * 10) / width;

		// XXX: Workaround for JavaScript float issues (fix me)
		var fudge = 0.0001;

		unzoombtn.classList.remove("hide");

		var el = document.getElementById("frames").children;
		for (var i = 0; i < el.length; i++) {
			var e = el[i];
			var a = find_child(e, "rect").attributes;
			var ex = parseFloat(a.x.value);
			var ew = parseFloat(a.width.value);
			var upstack;
			// Is it an ancestor
			if (0 == 0) {
				upstack = parseFloat(a.y.value) > ymin;
			} else {
				upstack = parseFloat(a.y.value) < ymin;
			}
			if (upstack) {
				// Direct ancestor
				if (ex <= xmin && (ex+ew+fudge) >= xmax) {
					e.classList.add("parent");
					zoom_parent(e);
					update_text(e);
				}
				// not in current path
				else
					e.classList.add("hide");
			}
			// Children maybe
			else {
				// no common path
				if (ex < xmin || ex + fudge >= xmax) {
					e.classList.add("hide");
				}
				else {
					zoom_child(e, xmin, ratio);
					update_text(e);
				}
			}
		}
		search();
	}
	function unzoom() {
		unzoombtn.classList.add("hide");
		var el = document.getElementById("frames").children;
		for(var i = 0; i < el.length; i++) {
			el[i].classList.remove("parent");
			el[i].classList.remove("hide");
			zoom_reset(el[i]);
			update_text(el[i]);
		}
		search();
	}

	// search
	function toggle_ignorecase() {
		ignorecase = !ignorecase;
		if (ignorecase) {
			ignorecaseBtn.classList.add("show");
		} else {
			ignorecaseBtn.classList.remove("show");
		}
		reset_search();
		search();
	}
	function reset_search() {
		var el = document.querySelectorAll("#frames rect");
		for (var i = 0; i < el.length; i++) {
			orig_load(el[i], "fill")
		}
	}
	function search_prompt() {
		if (!searching) {
			var term = prompt("Enter a search term (regexp " +
			    "allowed, eg: ^ext4_)"
			    + (ignorecase ? ", ignoring case" : "")
			    + "\nPress Ctrl-i to toggle case sensitivity", "");
			if (term != null) {
				currentSearchTerm = term;
				search();
			}
		} else {
			reset_search();
			searching = 0;
			currentSearchTerm = null;
			searchbtn.classList.remove("show");
			searchbtn.firstChild.nodeValue = "Search"
			matchedtxt.classList.add("hide");
			matchedtxt.firstChild.nodeValue = ""
		}
	}
	function search(term) {
		if (currentSearchTerm === null) return;
		var term = currentSearchTerm;

		var re = new RegExp(term, ignorecase ? 'i' : '');
		var el = document.getElementById("frames").children;
		var matches = new Object();
		var maxwidth = 0;
		for (var i = 0; i < el.length; i++) {
			var e = el[i];
			var func = g_to_func(e);
			var rect = find_child(e, "rect");
			if (func == null || rect == null)
				continue;

			// Save max width. Only works as we have a root frame
			var w = parseFloat(rect.attributes.width.value);
			if (w > maxwidth)
				maxwidth = w;

			if (func.match(re)) {
				// highlight
				var x = parseFloat(rect.attributes.x.value);
				orig_save(rect, "fill");
				rect.attributes.fill.value = "rgb(230,0,230)";

				// remember matches
				if (matches[x] == undefined) {
					matches[x] = w;
				} else {
					if (w > matches[x]) {
						// overwrite with parent
						matches[x] = w;
					}
				}
				searching = 1;
			}
		}
		if (!searching)
			return;

		searchbtn.classList.add("show");
		searchbtn.firstChild.nodeValue = "Reset Search";

		// calculate percent matched, excluding vertical overlap
		var count = 0;
		var lastx = -1;
		var lastw = 0;
		var keys = Array();
		for (k in matches) {
			if (matches.hasOwnProperty(k))
				keys.push(k);
		}
		// sort the matched frames by their x location
		// ascending, then width descending
		keys.sort(function(a, b){
			return a - b;
		});
		// Step through frames saving only the biggest bottom-up frames
		// thanks to the sort order. This relies on the tree property
		// where children are always smaller than their parents.
		var fudge = 0.0001;	// JavaScript floating point
		for (var k in keys) {
			var x = parseFloat(keys[k]);
			var w = matches[keys[k]];
			if (x >= lastx + lastw - fudge) {
				count += w;
				lastx = x;
				lastw = w;
			}
		}
		// display matched percent
		matchedtxt.classList.remove("hide");
		var pct = 100 * count / maxwidth;
		if (pct != 100) pct = pct.toFixed(1)
		matchedtxt.firstChild.nodeValue = "Matched: " + pct + "%";
	}
]]>
</script>
<rect x="0.0" y="0" width="1200.0" height="342.0" fill="url(#background)"  />
<text id="title" x="600.00" y="24" >Flame Graph</text>
<text id="details" x="10.00" y="325" > </text>
<text id="unzoom" x="10.00" y="24" class="hide">Reset Zoom</text>
<text id="search" x="1090.00" y="24" >Search</text>
<text id="ignorecase" x="1174.00" y="24" >ic</text>
<text id="matched" x="1090.00" y="325" > </text>
<g id="frames">
<g >
<title>[[kernel.kallsyms]] (21 samples, 1.52%)</title><rect x="1140.5" y="245" width="17.9" height="15.0" fill="rgb(220,68,5)" rx="2" ry="2" />
<text  x="1143.51" y="255.5" ></text>
</g>
<g >
<title>[[kernel.kallsyms]] (2 samples, 0.14%)</title><rect x="93.6" y="149" width="1.7" height="15.0" fill="rgb(205,61,50)" rx="2" ry="2" />
<text  x="96.62" y="159.5" ></text>
</g>
<g >
<title>[[kernel.kallsyms]] (18 samples, 1.30%)</title><rect x="64.6" y="213" width="15.4" height="15.0" fill="rgb(214,35,8)" rx="2" ry="2" />
<text  x="67.61" y="223.5" ></text>
</g>
<g >
<title>[[kernel.kallsyms]] (9 samples, 0.65%)</title><rect x="72.3" y="101" width="7.7" height="15.0" fill="rgb(223,76,36)" rx="2" ry="2" />
<text  x="75.28" y="111.5" ></text>
</g>
<g >
<title>[[kernel.kallsyms]] (2 samples, 0.14%)</title><rect x="1188.3" y="213" width="1.7" height="15.0" fill="rgb(251,216,34)" rx="2" ry="2" />
<text  x="1191.29" y="223.5" ></text>
</g>
<g >
<title>[[kernel.kallsyms]] (4 samples, 0.29%)</title><rect x="1161.8" y="181" width="3.5" height="15.0" fill="rgb(247,150,40)" rx="2" ry="2" />
<text  x="1164.84" y="191.5" ></text>
</g>
<g >
<title>[[kernel.kallsyms]] (7 samples, 0.51%)</title><rect x="576.5" y="229" width="6.0" height="15.0" fill="rgb(234,107,8)" rx="2" ry="2" />
<text  x="579.54" y="239.5" ></text>
</g>
<g >
<title>[[kernel.kallsyms]] (3 samples, 0.22%)</title><rect x="1162.7" y="101" width="2.6" height="15.0" fill="rgb(221,182,23)" rx="2" ry="2" />
<text  x="1165.70" y="111.5" ></text>
</g>
<g >
<title>[[kernel.kallsyms]] (4 samples, 0.29%)</title><rect x="1161.8" y="213" width="3.5" height="15.0" fill="rgb(207,213,41)" rx="2" ry="2" />
<text  x="1164.84" y="223.5" ></text>
</g>
<g >
<title>[[kernel.kallsyms]] (15 samples, 1.08%)</title><rect x="1145.6" y="181" width="12.8" height="15.0" fill="rgb(249,13,48)" rx="2" ry="2" />
<text  x="1148.63" y="191.5" ></text>
</g>
<g >
<title>[[kernel.kallsyms]] (1 samples, 0.07%)</title><rect x="874.3" y="245" width="0.9" height="15.0" fill="rgb(215,81,3)" rx="2" ry="2" />
<text  x="877.31" y="255.5" ></text>
</g>
<g >
<title>[[kernel.kallsyms]] (2 samples, 0.14%)</title><rect x="1188.3" y="85" width="1.7" height="15.0" fill="rgb(235,76,36)" rx="2" ry="2" />
<text  x="1191.29" y="95.5" ></text>
</g>
<g >
<title>[[kernel.kallsyms]] (4 samples, 0.29%)</title><rect x="1161.8" y="149" width="3.5" height="15.0" fill="rgb(251,143,31)" rx="2" ry="2" />
<text  x="1164.84" y="159.5" ></text>
</g>
<g >
<title>[[kernel.kallsyms]] (2 samples, 0.14%)</title><rect x="78.3" y="85" width="1.7" height="15.0" fill="rgb(246,161,22)" rx="2" ry="2" />
<text  x="81.26" y="95.5" ></text>
</g>
<g >
<title>[[kernel.kallsyms]] (2 samples, 0.14%)</title><rect x="1188.3" y="133" width="1.7" height="15.0" fill="rgb(222,36,36)" rx="2" ry="2" />
<text  x="1191.29" y="143.5" ></text>
</g>
<g >
<title>[[kernel.kallsyms]] (4 samples, 0.29%)</title><rect x="1161.8" y="165" width="3.5" height="15.0" fill="rgb(238,120,15)" rx="2" ry="2" />
<text  x="1164.84" y="175.5" ></text>
</g>
<g >
<title>[[kernel.kallsyms]] (9 samples, 0.65%)</title><rect x="574.8" y="245" width="7.7" height="15.0" fill="rgb(228,16,34)" rx="2" ry="2" />
<text  x="577.83" y="255.5" ></text>
</g>
<g >
<title>__mpn_construct_double (7 samples, 0.51%)</title><rect x="406.7" y="245" width="6.0" height="15.0" fill="rgb(205,217,23)" rx="2" ry="2" />
<text  x="409.75" y="255.5" ></text>
</g>
<g >
<title>[[kernel.kallsyms]] (2 samples, 0.14%)</title><rect x="338.5" y="229" width="1.7" height="15.0" fill="rgb(217,115,44)" rx="2" ry="2" />
<text  x="341.49" y="239.5" ></text>
</g>
<g >
<title>[[kernel.kallsyms]] (2 samples, 0.14%)</title><rect x="338.5" y="133" width="1.7" height="15.0" fill="rgb(210,153,47)" rx="2" ry="2" />
<text  x="341.49" y="143.5" ></text>
</g>
<g >
<title>[[kernel.kallsyms]] (17 samples, 1.23%)</title><rect x="1143.9" y="229" width="14.5" height="15.0" fill="rgb(217,224,23)" rx="2" ry="2" />
<text  x="1146.93" y="239.5" ></text>
</g>
<g >
<title>__strcspn_sse42 (29 samples, 2.10%)</title><rect x="95.3" y="229" width="24.8" height="15.0" fill="rgb(253,41,43)" rx="2" ry="2" />
<text  x="98.32" y="239.5" >_..</text>
</g>
<g >
<title>_IO_fgets (38 samples, 2.75%)</title><rect x="178.1" y="245" width="32.4" height="15.0" fill="rgb(236,106,35)" rx="2" ry="2" />
<text  x="181.08" y="255.5" >_I..</text>
</g>
<g >
<title>[[kernel.kallsyms]] (2 samples, 0.14%)</title><rect x="93.6" y="165" width="1.7" height="15.0" fill="rgb(240,106,35)" rx="2" ry="2" />
<text  x="96.62" y="175.5" ></text>
</g>
<g >
<title>[[kernel.kallsyms]] (14 samples, 1.01%)</title><rect x="68.0" y="149" width="12.0" height="15.0" fill="rgb(232,178,47)" rx="2" ry="2" />
<text  x="71.02" y="159.5" ></text>
</g>
<g >
<title>[[kernel.kallsyms]] (4 samples, 0.29%)</title><rect x="579.1" y="133" width="3.4" height="15.0" fill="rgb(210,186,43)" rx="2" ry="2" />
<text  x="582.10" y="143.5" ></text>
</g>
<g >
<title>str_to_mpn.isra.0 (18 samples, 1.30%)</title><rect x="1169.5" y="261" width="15.4" height="15.0" fill="rgb(218,163,34)" rx="2" ry="2" />
<text  x="1172.52" y="271.5" ></text>
</g>
<g >
<title>[[kernel.kallsyms]] (10 samples, 0.72%)</title><rect x="71.4" y="117" width="8.6" height="15.0" fill="rgb(212,228,29)" rx="2" ry="2" />
<text  x="74.43" y="127.5" ></text>
</g>
<g >
<title>[[kernel.kallsyms]] (1 samples, 0.07%)</title><rect x="581.7" y="85" width="0.8" height="15.0" fill="rgb(231,44,14)" rx="2" ry="2" />
<text  x="584.66" y="95.5" ></text>
</g>
<g >
<title>__strtok_r (8 samples, 0.58%)</title><rect x="594.5" y="261" width="6.8" height="15.0" fill="rgb(239,77,15)" rx="2" ry="2" />
<text  x="597.45" y="271.5" ></text>
</g>
<g >
<title>ministat (1,381 samples, 99.86%)</title><rect x="10.0" y="277" width="1178.3" height="15.0" fill="rgb(222,216,30)" rx="2" ry="2" />
<text  x="13.00" y="287.5" >ministat</text>
</g>
<g >
<title>[[kernel.kallsyms]] (8 samples, 0.58%)</title><rect x="1151.6" y="101" width="6.8" height="15.0" fill="rgb(215,98,28)" rx="2" ry="2" />
<text  x="1154.61" y="111.5" ></text>
</g>
<g >
<title>dbl_cmp (321 samples, 23.21%)</title><rect x="601.3" y="261" width="273.9" height="15.0" fill="rgb(249,206,5)" rx="2" ry="2" />
<text  x="604.28" y="271.5" >dbl_cmp</text>
</g>
<g >
<title>[[kernel.kallsyms]] (2 samples, 0.14%)</title><rect x="93.6" y="229" width="1.7" height="15.0" fill="rgb(212,150,13)" rx="2" ry="2" />
<text  x="96.62" y="239.5" ></text>
</g>
<g >
<title>[[kernel.kallsyms]] (2 samples, 0.14%)</title><rect x="1188.3" y="101" width="1.7" height="15.0" fill="rgb(210,120,12)" rx="2" ry="2" />
<text  x="1191.29" y="111.5" ></text>
</g>
<g >
<title>__strlen_avx2 (6 samples, 0.43%)</title><rect x="589.3" y="261" width="5.2" height="15.0" fill="rgb(251,177,35)" rx="2" ry="2" />
<text  x="592.33" y="271.5" ></text>
</g>
<g >
<title>msort_with_tmp.part.0 (330 samples, 23.86%)</title><rect x="876.9" y="261" width="281.5" height="15.0" fill="rgb(213,191,19)" rx="2" ry="2" />
<text  x="879.87" y="271.5" >msort_with_tmp.part.0</text>
</g>
<g >
<title>[[kernel.kallsyms]] (3 samples, 0.22%)</title><rect x="579.9" y="101" width="2.6" height="15.0" fill="rgb(237,177,50)" rx="2" ry="2" />
<text  x="582.95" y="111.5" ></text>
</g>
<g >
<title>__mpn_lshift (8 samples, 0.58%)</title><rect x="582.5" y="261" width="6.8" height="15.0" fill="rgb(229,126,19)" rx="2" ry="2" />
<text  x="585.51" y="271.5" ></text>
</g>
<g >
<title>[[kernel.kallsyms]] (2 samples, 0.14%)</title><rect x="93.6" y="133" width="1.7" height="15.0" fill="rgb(228,102,49)" rx="2" ry="2" />
<text  x="96.62" y="143.5" ></text>
</g>
<g >
<title>[[kernel.kallsyms]] (2 samples, 0.14%)</title><rect x="338.5" y="117" width="1.7" height="15.0" fill="rgb(225,120,15)" rx="2" ry="2" />
<text  x="341.49" y="127.5" ></text>
</g>
<g >
<title>[[kernel.kallsyms]] (13 samples, 0.94%)</title><rect x="1147.3" y="149" width="11.1" height="15.0" fill="rgb(231,56,28)" rx="2" ry="2" />
<text  x="1150.34" y="159.5" ></text>
</g>
<g >
<title>[[kernel.kallsyms]] (2 samples, 0.14%)</title><rect x="338.5" y="213" width="1.7" height="15.0" fill="rgb(218,112,41)" rx="2" ry="2" />
<text  x="341.49" y="223.5" ></text>
</g>
<g >
<title>[[kernel.kallsyms]] (1 samples, 0.07%)</title><rect x="874.3" y="229" width="0.9" height="15.0" fill="rgb(242,169,47)" rx="2" ry="2" />
<text  x="877.31" y="239.5" ></text>
</g>
<g >
<title>[[kernel.kallsyms]] (16 samples, 1.16%)</title><rect x="1144.8" y="213" width="13.6" height="15.0" fill="rgb(248,127,18)" rx="2" ry="2" />
<text  x="1147.78" y="223.5" ></text>
</g>
<g >
<title>[[kernel.kallsyms]] (2 samples, 0.14%)</title><rect x="338.5" y="181" width="1.7" height="15.0" fill="rgb(234,223,11)" rx="2" ry="2" />
<text  x="341.49" y="191.5" ></text>
</g>
<g >
<title>[[kernel.kallsyms]] (4 samples, 0.29%)</title><rect x="579.1" y="165" width="3.4" height="15.0" fill="rgb(205,131,54)" rx="2" ry="2" />
<text  x="582.10" y="175.5" ></text>
</g>
<g >
<title>perf (2 samples, 0.14%)</title><rect x="1188.3" y="277" width="1.7" height="15.0" fill="rgb(206,181,12)" rx="2" ry="2" />
<text  x="1191.29" y="287.5" ></text>
</g>
<g >
<title>strtod (3 samples, 0.22%)</title><rect x="1184.9" y="261" width="2.5" height="15.0" fill="rgb(205,141,3)" rx="2" ry="2" />
<text  x="1187.88" y="271.5" ></text>
</g>
<g >
<title>[[kernel.kallsyms]] (8 samples, 0.58%)</title><rect x="1151.6" y="117" width="6.8" height="15.0" fill="rgb(205,176,27)" rx="2" ry="2" />
<text  x="1154.61" y="127.5" ></text>
</g>
<g >
<title>[[kernel.kallsyms]] (2 samples, 0.14%)</title><rect x="338.5" y="149" width="1.7" height="15.0" fill="rgb(248,223,38)" rx="2" ry="2" />
<text  x="341.49" y="159.5" ></text>
</g>
<g >
<title>[[kernel.kallsyms]] (2 samples, 0.14%)</title><rect x="338.5" y="101" width="1.7" height="15.0" fill="rgb(229,223,13)" rx="2" ry="2" />
<text  x="341.49" y="111.5" ></text>
</g>
<g >
<title>[[kernel.kallsyms]] (2 samples, 0.14%)</title><rect x="93.6" y="69" width="1.7" height="15.0" fill="rgb(231,164,49)" rx="2" ry="2" />
<text  x="96.62" y="79.5" ></text>
</g>
<g >
<title>[[kernel.kallsyms]] (22 samples, 1.59%)</title><rect x="61.2" y="245" width="18.8" height="15.0" fill="rgb(248,222,32)" rx="2" ry="2" />
<text  x="64.19" y="255.5" ></text>
</g>
<g >
<title>round_and_return (28 samples, 2.02%)</title><rect x="412.7" y="245" width="23.9" height="15.0" fill="rgb(236,165,42)" rx="2" ry="2" />
<text  x="415.72" y="255.5" >r..</text>
</g>
<g >
<title>__strtok_r (33 samples, 2.39%)</title><rect x="149.9" y="229" width="28.2" height="15.0" fill="rgb(206,86,37)" rx="2" ry="2" />
<text  x="152.93" y="239.5" >_..</text>
</g>
<g >
<title>[[kernel.kallsyms]] (16 samples, 1.16%)</title><rect x="66.3" y="165" width="13.7" height="15.0" fill="rgb(253,89,9)" rx="2" ry="2" />
<text  x="69.31" y="175.5" ></text>
</g>
<g >
<title>[[kernel.kallsyms]] (8 samples, 0.58%)</title><rect x="1158.4" y="245" width="6.9" height="15.0" fill="rgb(221,62,27)" rx="2" ry="2" />
<text  x="1161.43" y="255.5" ></text>
</g>
<g >
<title>[[kernel.kallsyms]] (2 samples, 0.14%)</title><rect x="93.6" y="197" width="1.7" height="15.0" fill="rgb(223,101,29)" rx="2" ry="2" />
<text  x="96.62" y="207.5" ></text>
</g>
<g >
<title>[[kernel.kallsyms]] (4 samples, 0.29%)</title><rect x="579.1" y="149" width="3.4" height="15.0" fill="rgb(246,220,38)" rx="2" ry="2" />
<text  x="582.10" y="159.5" ></text>
</g>
<g >
<title>[[kernel.kallsyms]] (2 samples, 0.14%)</title><rect x="1188.3" y="149" width="1.7" height="15.0" fill="rgb(238,52,12)" rx="2" ry="2" />
<text  x="1191.29" y="159.5" ></text>
</g>
<g >
<title>__memmove_avx_unaligned_erms (98 samples, 7.09%)</title><rect x="498.9" y="261" width="83.6" height="15.0" fill="rgb(236,139,23)" rx="2" ry="2" />
<text  x="501.89" y="271.5" >__memmove..</text>
</g>
<g >
<title>__GI_____strtod_l_internal (95 samples, 6.87%)</title><rect x="259.1" y="245" width="81.1" height="15.0" fill="rgb(241,9,11)" rx="2" ry="2" />
<text  x="262.14" y="255.5" >__GI_____..</text>
</g>
<g >
<title>[[kernel.kallsyms]] (4 samples, 0.29%)</title><rect x="579.1" y="181" width="3.4" height="15.0" fill="rgb(232,122,44)" rx="2" ry="2" />
<text  x="582.10" y="191.5" ></text>
</g>
<g >
<title>[[kernel.kallsyms]] (4 samples, 0.29%)</title><rect x="1161.8" y="133" width="3.5" height="15.0" fill="rgb(226,7,28)" rx="2" ry="2" />
<text  x="1164.84" y="143.5" ></text>
</g>
<g >
<title>_IO_fgets (7 samples, 0.51%)</title><rect x="450.3" y="261" width="5.9" height="15.0" fill="rgb(224,152,35)" rx="2" ry="2" />
<text  x="453.26" y="271.5" ></text>
</g>
<g >
<title>[[kernel.kallsyms]] (2 samples, 0.14%)</title><rect x="93.6" y="181" width="1.7" height="15.0" fill="rgb(222,201,27)" rx="2" ry="2" />
<text  x="96.62" y="191.5" ></text>
</g>
<g >
<title>all (1,383 samples, 100%)</title><rect x="10.0" y="293" width="1180.0" height="15.0" fill="rgb(226,87,42)" rx="2" ry="2" />
<text  x="13.00" y="303.5" ></text>
</g>
<g >
<title>[[kernel.kallsyms]] (2 samples, 0.14%)</title><rect x="1188.3" y="245" width="1.7" height="15.0" fill="rgb(214,165,14)" rx="2" ry="2" />
<text  x="1191.29" y="255.5" ></text>
</g>
<g >
<title>[[kernel.kallsyms]] (2 samples, 0.14%)</title><rect x="338.5" y="69" width="1.7" height="15.0" fill="rgb(253,9,12)" rx="2" ry="2" />
<text  x="341.49" y="79.5" ></text>
</g>
<g >
<title>[[kernel.kallsyms]] (2 samples, 0.14%)</title><rect x="338.5" y="37" width="1.7" height="15.0" fill="rgb(216,82,19)" rx="2" ry="2" />
<text  x="341.49" y="47.5" ></text>
</g>
<g >
<title>[[kernel.kallsyms]] (2 samples, 0.14%)</title><rect x="93.6" y="117" width="1.7" height="15.0" fill="rgb(210,142,45)" rx="2" ry="2" />
<text  x="96.62" y="127.5" ></text>
</g>
<g >
<title>[[kernel.kallsyms]] (2 samples, 0.14%)</title><rect x="1188.3" y="117" width="1.7" height="15.0" fill="rgb(220,20,42)" rx="2" ry="2" />
<text  x="1191.29" y="127.5" ></text>
</g>
<g >
<title>[[kernel.kallsyms]] (16 samples, 1.16%)</title><rect x="1144.8" y="197" width="13.6" height="15.0" fill="rgb(252,191,39)" rx="2" ry="2" />
<text  x="1147.78" y="207.5" ></text>
</g>
<g >
<title>[[kernel.kallsyms]] (2 samples, 0.14%)</title><rect x="93.6" y="101" width="1.7" height="15.0" fill="rgb(223,156,39)" rx="2" ry="2" />
<text  x="96.62" y="111.5" ></text>
</g>
<g >
<title>strtok (1 samples, 0.07%)</title><rect x="1187.4" y="261" width="0.9" height="15.0" fill="rgb(232,47,25)" rx="2" ry="2" />
<text  x="1190.44" y="271.5" ></text>
</g>
<g >
<title>[[kernel.kallsyms]] (2 samples, 0.14%)</title><rect x="93.6" y="213" width="1.7" height="15.0" fill="rgb(225,158,7)" rx="2" ry="2" />
<text  x="96.62" y="223.5" ></text>
</g>
<g >
<title>__memchr_avx2 (54 samples, 3.90%)</title><rect x="340.2" y="245" width="46.1" height="15.0" fill="rgb(246,126,1)" rx="2" ry="2" />
<text  x="343.20" y="255.5" >__me..</text>
</g>
<g >
<title>[[kernel.kallsyms]] (2 samples, 0.14%)</title><rect x="338.5" y="197" width="1.7" height="15.0" fill="rgb(247,183,17)" rx="2" ry="2" />
<text  x="341.49" y="207.5" ></text>
</g>
<g >
<title>[[kernel.kallsyms]] (1 samples, 0.07%)</title><rect x="1157.6" y="85" width="0.8" height="15.0" fill="rgb(241,186,53)" rx="2" ry="2" />
<text  x="1160.58" y="95.5" ></text>
</g>
<g >
<title>[[kernel.kallsyms]] (2 samples, 0.14%)</title><rect x="1188.3" y="181" width="1.7" height="15.0" fill="rgb(206,58,53)" rx="2" ry="2" />
<text  x="1191.29" y="191.5" ></text>
</g>
<g >
<title>[[kernel.kallsyms]] (4 samples, 0.29%)</title><rect x="579.1" y="213" width="3.4" height="15.0" fill="rgb(208,167,5)" rx="2" ry="2" />
<text  x="582.10" y="223.5" ></text>
</g>
<g >
<title>[[kernel.kallsyms]] (1 samples, 0.07%)</title><rect x="94.5" y="53" width="0.8" height="15.0" fill="rgb(218,9,14)" rx="2" ry="2" />
<text  x="97.47" y="63.5" ></text>
</g>
<g >
<title>[[kernel.kallsyms]] (2 samples, 0.14%)</title><rect x="1188.3" y="261" width="1.7" height="15.0" fill="rgb(218,157,2)" rx="2" ry="2" />
<text  x="1191.29" y="271.5" ></text>
</g>
<g >
<title>[[kernel.kallsyms]] (4 samples, 0.29%)</title><rect x="579.1" y="197" width="3.4" height="15.0" fill="rgb(241,85,38)" rx="2" ry="2" />
<text  x="582.10" y="207.5" ></text>
</g>
<g >
<title>__memmove_avx_unaligned_erms (5 samples, 0.36%)</title><rect x="80.0" y="245" width="4.2" height="15.0" fill="rgb(213,32,35)" rx="2" ry="2" />
<text  x="82.96" y="255.5" ></text>
</g>
<g >
<title>[[kernel.kallsyms]] (7 samples, 0.51%)</title><rect x="1159.3" y="229" width="6.0" height="15.0" fill="rgb(234,17,2)" rx="2" ry="2" />
<text  x="1162.28" y="239.5" ></text>
</g>
<g >
<title>[[kernel.kallsyms]] (2 samples, 0.14%)</title><rect x="1188.3" y="69" width="1.7" height="15.0" fill="rgb(210,111,16)" rx="2" ry="2" />
<text  x="1191.29" y="79.5" ></text>
</g>
<g >
<title>[[kernel.kallsyms]] (2 samples, 0.14%)</title><rect x="338.5" y="85" width="1.7" height="15.0" fill="rgb(248,176,29)" rx="2" ry="2" />
<text  x="341.49" y="95.5" ></text>
</g>
<g >
<title>[[kernel.kallsyms]] (9 samples, 0.65%)</title><rect x="1150.8" y="133" width="7.6" height="15.0" fill="rgb(235,38,22)" rx="2" ry="2" />
<text  x="1153.75" y="143.5" ></text>
</g>
<g >
<title>__GI_____strtod_l_internal (50 samples, 3.62%)</title><rect x="456.2" y="261" width="42.7" height="15.0" fill="rgb(234,42,9)" rx="2" ry="2" />
<text  x="459.23" y="271.5" >__GI..</text>
</g>
<g >
<title>ReadSet (87 samples, 6.29%)</title><rect x="10.0" y="261" width="74.2" height="15.0" fill="rgb(231,92,18)" rx="2" ry="2" />
<text  x="13.00" y="271.5" >ReadSet</text>
</g>
<g >
<title>[[kernel.kallsyms]] (108 samples, 7.81%)</title><rect x="85.9" y="245" width="92.2" height="15.0" fill="rgb(213,67,6)" rx="2" ry="2" />
<text  x="88.94" y="255.5" >[[kernel.ka..</text>
</g>
<g >
<title>[[kernel.kallsyms]] (2 samples, 0.14%)</title><rect x="1188.3" y="197" width="1.7" height="15.0" fill="rgb(250,39,8)" rx="2" ry="2" />
<text  x="1191.29" y="207.5" ></text>
</g>
<g >
<title>__memmove_avx_unaligned_erms (24 samples, 1.74%)</title><rect x="386.3" y="245" width="20.4" height="15.0" fill="rgb(210,223,33)" rx="2" ry="2" />
<text  x="389.27" y="255.5" ></text>
</g>
<g >
<title>_IO_getline (57 samples, 4.12%)</title><rect x="210.5" y="245" width="48.6" height="15.0" fill="rgb(246,42,37)" rx="2" ry="2" />
<text  x="213.51" y="255.5" >_IO_..</text>
</g>
<g >
<title>read (8 samples, 0.58%)</title><rect x="1158.4" y="261" width="6.9" height="15.0" fill="rgb(218,41,0)" rx="2" ry="2" />
<text  x="1161.43" y="271.5" ></text>
</g>
<g >
<title>[[kernel.kallsyms]] (3 samples, 0.22%)</title><rect x="579.9" y="117" width="2.6" height="15.0" fill="rgb(238,125,19)" rx="2" ry="2" />
<text  x="582.95" y="127.5" ></text>
</g>
<g >
<title>str_to_mpn.isra.0 (16 samples, 1.16%)</title><rect x="436.6" y="245" width="13.7" height="15.0" fill="rgb(224,114,4)" rx="2" ry="2" />
<text  x="439.61" y="255.5" ></text>
</g>
<g >
<title>[[kernel.kallsyms]] (2 samples, 0.14%)</title><rect x="338.5" y="165" width="1.7" height="15.0" fill="rgb(251,54,44)" rx="2" ry="2" />
<text  x="341.49" y="175.5" ></text>
</g>
<g >
<title>[[kernel.kallsyms]] (12 samples, 0.87%)</title><rect x="69.7" y="133" width="10.3" height="15.0" fill="rgb(228,152,54)" rx="2" ry="2" />
<text  x="72.73" y="143.5" ></text>
</g>
<g >
<title>[[kernel.kallsyms]] (14 samples, 1.01%)</title><rect x="1146.5" y="165" width="11.9" height="15.0" fill="rgb(224,131,5)" rx="2" ry="2" />
<text  x="1149.49" y="175.5" ></text>
</g>
<g >
<title>[[kernel.kallsyms]] (1 samples, 0.07%)</title><rect x="1164.4" y="69" width="0.9" height="15.0" fill="rgb(246,75,18)" rx="2" ry="2" />
<text  x="1167.40" y="79.5" ></text>
</g>
<g >
<title>[[kernel.kallsyms]] (429 samples, 31.02%)</title><rect x="84.2" y="261" width="366.1" height="15.0" fill="rgb(233,222,22)" rx="2" ry="2" />
<text  x="87.23" y="271.5" >[[kernel.kallsyms]]</text>
</g>
<g >
<title>@plt (9 samples, 0.65%)</title><rect x="85.9" y="229" width="7.7" height="15.0" fill="rgb(251,58,15)" rx="2" ry="2" />
<text  x="88.94" y="239.5" ></text>
</g>
<g >
<title>[[kernel.kallsyms]] (2 samples, 0.14%)</title><rect x="1188.3" y="165" width="1.7" height="15.0" fill="rgb(215,197,39)" rx="2" ry="2" />
<text  x="1191.29" y="175.5" ></text>
</g>
<g >
<title>[[kernel.kallsyms]] (17 samples, 1.23%)</title><rect x="65.5" y="181" width="14.5" height="15.0" fill="rgb(222,2,1)" rx="2" ry="2" />
<text  x="68.46" y="191.5" ></text>
</g>
<g >
<title>__strspn_sse42 (35 samples, 2.53%)</title><rect x="120.1" y="229" width="29.8" height="15.0" fill="rgb(230,75,14)" rx="2" ry="2" />
<text  x="123.07" y="239.5" >__..</text>
</g>
<g >
<title>[[kernel.kallsyms]] (2 samples, 0.14%)</title><rect x="93.6" y="85" width="1.7" height="15.0" fill="rgb(235,179,13)" rx="2" ry="2" />
<text  x="96.62" y="95.5" ></text>
</g>
<g >
<title>[[kernel.kallsyms]] (2 samples, 0.14%)</title><rect x="338.5" y="53" width="1.7" height="15.0" fill="rgb(229,98,40)" rx="2" ry="2" />
<text  x="341.49" y="63.5" ></text>
</g>
<g >
<title>[[kernel.kallsyms]] (18 samples, 1.30%)</title><rect x="64.6" y="197" width="15.4" height="15.0" fill="rgb(210,186,40)" rx="2" ry="2" />
<text  x="67.61" y="207.5" ></text>
</g>
<g >
<title>[[kernel.kallsyms]] (1 samples, 0.07%)</title><rect x="1164.4" y="85" width="0.9" height="15.0" fill="rgb(210,15,23)" rx="2" ry="2" />
<text  x="1167.40" y="95.5" ></text>
</g>
<g >
<title>[[kernel.kallsyms]] (4 samples, 0.29%)</title><rect x="1161.8" y="197" width="3.5" height="15.0" fill="rgb(227,198,47)" rx="2" ry="2" />
<text  x="1164.84" y="207.5" ></text>
</g>
<g >
<title>[[kernel.kallsyms]] (2 samples, 0.14%)</title><rect x="1188.3" y="229" width="1.7" height="15.0" fill="rgb(237,224,12)" rx="2" ry="2" />
<text  x="1191.29" y="239.5" ></text>
</g>
<g >
<title>[[kernel.kallsyms]] (4 samples, 0.29%)</title><rect x="1161.8" y="117" width="3.5" height="15.0" fill="rgb(228,28,22)" rx="2" ry="2" />
<text  x="1164.84" y="127.5" ></text>
</g>
<g >
<title>[[kernel.kallsyms]] (2 samples, 0.14%)</title><rect x="1188.3" y="53" width="1.7" height="15.0" fill="rgb(231,105,51)" rx="2" ry="2" />
<text  x="1191.29" y="63.5" ></text>
</g>
<g >
<title>round_and_return (5 samples, 0.36%)</title><rect x="1165.3" y="261" width="4.2" height="15.0" fill="rgb(215,3,1)" rx="2" ry="2" />
<text  x="1168.26" y="271.5" ></text>
</g>
<g >
<title>fgets@plt (2 samples, 0.14%)</title><rect x="875.2" y="261" width="1.7" height="15.0" fill="rgb(232,9,38)" rx="2" ry="2" />
<text  x="878.16" y="271.5" ></text>
</g>
<g >
<title>[[kernel.kallsyms]] (19 samples, 1.37%)</title><rect x="63.8" y="229" width="16.2" height="15.0" fill="rgb(224,93,43)" rx="2" ry="2" />
<text  x="66.75" y="239.5" ></text>
</g>
<g >
<title>@plt (2 samples, 0.14%)</title><rect x="84.2" y="245" width="1.7" height="15.0" fill="rgb(225,119,30)" rx="2" ry="2" />
<text  x="87.23" y="255.5" ></text>
</g>
</g>
</svg>
